<?xml version="1.0" standalone="no"?><!DOCTYPE svg PUBLIC "-//W3C//DTD SVG 1.1//EN" "http://www.w3.org/Graphics/SVG/1.1/DTD/svg11.dtd"><svg class="icon" width="200px" height="200.00px" viewBox="0 0 1024 1024" version="1.1" xmlns="http://www.w3.org/2000/svg"><path d="M849.92 51.2H174.08c-67.8656 0-122.88 55.0144-122.88 122.88v675.84c0 67.8656 55.0144 122.88 122.88 122.88h675.84c67.8656 0 122.88-55.0144 122.88-122.88V174.08c0-67.8656-55.0144-122.88-122.88-122.88z m-49.13664 560.83968l-44.46208 44.4672a31.44704 31.44704 0 0 1-44.4672 0l-88.92416-88.92416-88.91392 88.92416a31.44704 31.44704 0 0 1-44.4672 0L400.83968 567.808l-88.70912 88.704a31.44192 31.44192 0 0 1-44.45696 0l-44.46208-44.46208c-24.5504-24.55552-24.5504-64.36352 0-88.91904l-0.00512-0.01024 155.62752-155.6224a31.4368 31.4368 0 0 1 44.45696 0l88.69888 88.71424 88.70912-88.70912a31.4368 31.4368 0 0 1 44.46208 0l88.92928 88.91392-0.00512 0.00512 66.69312 66.69312c24.56064 24.56064 24.56064 64.36864 0.00512 88.92416z" fill="#408FF5" /></svg>