<?xml version="1.0" standalone="no"?><!DOCTYPE svg PUBLIC "-//W3C//DTD SVG 1.1//EN" "http://www.w3.org/Graphics/SVG/1.1/DTD/svg11.dtd"><svg class="icon" width="200px" height="200.00px" viewBox="0 0 1024 1024" version="1.1" xmlns="http://www.w3.org/2000/svg"><path d="M849.92 51.2H174.08c-67.8656 0-122.88 55.0144-122.88 122.88v675.84c0 67.8656 55.0144 122.88 122.88 122.88h675.84c67.8656 0 122.88-55.0144 122.88-122.88V174.08c0-67.8656-55.0144-122.88-122.88-122.88zM350.65344 621.71648H262.05184c-5.33504 0-9.32864-2.42176-11.5456-5.99552-2.34496-3.79392-2.47808-8.704 0-13.49632l94.16192-165.0944c0.08704-0.22016 0.08704-0.28672 0-0.50688l-59.904-103.04512c-2.52416-4.86912-2.87744-9.69728-0.52736-13.4912 2.21696-3.66592 6.71744-5.57568 12.04736-5.57568h88.6272c13.58336 0 20.25472 8.73472 24.64256 16.5632 0 0 60.58496 104.95488 60.93312 105.54368L374.8352 604.67712c-4.52096 8.14592-10.92608 17.03936-24.18176 17.03936z m422.77376-397.58848l-196.16256 346.87488c-0.10752 0.23552-0.10752 0.41472 0 0.5632l124.89728 228.29568c2.4576 4.92032 2.57024 9.87648 0.2048 13.6704-2.28352 3.65056-6.38976 5.66272-11.77088 5.66272h-88.48896c-13.54752 0-20.36736-9.00096-24.73472-16.9216 0 0-125.59872-230.35392-125.9264-230.94272 6.27712-11.10528 197.13536-349.63968 197.13536-349.63968 4.74112-8.51456 10.53184-16.896 23.72096-16.896h89.56416c5.31456 0 9.5232 1.9968 11.77088 5.6832 2.31424 3.77856 2.22208 8.71424-0.20992 13.64992z" fill="#006064" /></svg>