<?xml version="1.0" standalone="no"?><!DOCTYPE svg PUBLIC "-//W3C//DTD SVG 1.1//EN" "http://www.w3.org/Graphics/SVG/1.1/DTD/svg11.dtd"><svg class="icon" width="200px" height="200.00px" viewBox="0 0 1024 1024" version="1.1" xmlns="http://www.w3.org/2000/svg"><path d="M849.92 51.2H174.08c-67.8656 0-122.88 55.0144-122.88 122.88v675.84c0 67.8656 55.0144 122.88 122.88 122.88h675.84c67.8656 0 122.88-55.0144 122.88-122.88V174.08c0-67.8656-55.0144-122.88-122.88-122.88z m-337.86368 768c-143.26784 0-259.41504-116.15232-259.41504-259.41504 0 0-8.15104-139.84768 112.75264-254.51008 0 0 15.32928 29.5168 27.24864 37.46304 0 0 88.5504-55.06048 85.71392-137.93792 0 0 126.58688 27.2384 162.34496 159.50336 0 0 13.05088-10.21952 17.02912-59.60192 0 0 113.73568 87.84896 113.73568 255.08352 0.00512 143.26272-116.1472 259.41504-259.40992 259.41504z" fill="#FE2411" /><path d="M605.99808 551.45984L473.3696 474.88512c-22.71232-13.11232-41.2928-2.38592-41.2928 23.84384v153.14432c0 26.21952 18.58048 36.95104 41.2928 23.83872l132.6336-76.57472c22.71232-13.1072 22.71232-34.56512-0.00512-47.67744z" fill="#FE2411" /></svg>