<?xml version="1.0" standalone="no"?><!DOCTYPE svg PUBLIC "-//W3C//DTD SVG 1.1//EN" "http://www.w3.org/Graphics/SVG/1.1/DTD/svg11.dtd"><svg class="icon" width="200px" height="200.00px" viewBox="0 0 1024 1024" version="1.1" xmlns="http://www.w3.org/2000/svg"><path d="M281.6512 715.9808l90.496-51.80928V361.67168L281.6512 309.97504zM372.1472 333.2096V241.06496l-78.45376 47.32928zM762.82368 556.38528V468.98176l-76.416 43.7504zM372.1472 783.93856v-91.2896L293.8368 737.4848z" fill="#4C3BFB" /><path d="M849.92 51.2H174.08c-67.8656 0-122.88 55.0144-122.88 122.88v675.84c0 67.8656 55.0144 122.88 122.88 122.88h675.84c67.86048 0 122.88-55.0144 122.88-122.88V174.08c0-67.8656-55.01952-122.88-122.88-122.88z m-62.37696 533.59616L383.13984 819.2l-126.20288-74.86464V281.70752L384.40448 204.8l403.13856 235.776v144.22016z" fill="#4C3BFB" /><path d="M661.51936 526.98112l-264.65792 151.5264v104.17664l353.54112-204.928zM750.51008 447.54944L396.86144 240.7168v106.60864L661.504 498.50368zM396.86144 375.78752v274.23232l239.75936-137.2672z" fill="#4C3BFB" /></svg>