<?xml version="1.0" standalone="no"?><!DOCTYPE svg PUBLIC "-//W3C//DTD SVG 1.1//EN" "http://www.w3.org/Graphics/SVG/1.1/DTD/svg11.dtd"><svg class="icon" width="200px" height="200.00px" viewBox="0 0 1024 1024" version="1.1" xmlns="http://www.w3.org/2000/svg"><path d="M670.86848 477.17888c-1.13664-1.3056-2.24768-2.59072-3.56352-3.72224a23.65952 23.65952 0 0 1-1.67424-1.52576 45.79328 45.79328 0 0 0-4.04992-3.67104c-0.4608-0.3584-0.91136-0.72704-1.36704-1.09056-2.2272-1.8176-4.4544-3.62496-6.72256-5.39136l-1.57184-1.2288a300.20608 300.20608 0 0 0-8.27392-6.28224c-0.66048-0.48128-1.32096-0.96256-1.97632-1.45408a380.8512 380.8512 0 0 0-7.9872-5.78048l-1.88928-1.32096a523.07456 523.07456 0 0 0-21.13024-14.208c-0.76288-0.4864-1.536-0.96768-2.29888-1.4592-3.79904-2.43712-7.62368-4.81792-11.47904-7.17824l-1.408-0.86016a485.2224 485.2224 0 0 0-11.73504-6.99392 438.0672 438.0672 0 0 1-4.25984-2.46272 433.45408 433.45408 0 0 0-9.60512-5.47328c-1.44384-0.79872-2.88256-1.59232-4.30592-2.4064a345.1392 345.1392 0 0 0-9.728-5.33504 487.35232 487.35232 0 0 1-6.2464-3.34336 338.40128 338.40128 0 0 0-7.6032-4.06016c-1.20832-0.62976-2.42688-1.25952-3.63008-1.89952a296.54528 296.54528 0 0 0-7.17824-3.69152 225.03424 225.03424 0 0 1-5.07904-2.5856 390.4512 390.4512 0 0 0-8.62208-4.41856l-0.77312-0.384c-3.18976-1.59232-6.36416-3.17952-9.5744-4.70016-1.8432-0.8704-3.67616-1.76128-5.49888-2.67776a421.0688 421.0688 0 0 0-8.36096-4.10624 546.9184 546.9184 0 0 1-4.27008-2.04288c-51.37408-23.64416-77.56288-34.51904-104.1664-44.14976a1148.09856 1148.09856 0 0 0-42.5216-14.78144l-0.6656-0.22016c-5.62176-1.84832-11.2384-3.71712-16.90624-5.42208l-0.62464-0.18944c-1.8688-0.55808-3.7376-1.1008-5.62688-1.59744-0.32768 0.99328-0.32768 0.99328-0.99328 4.5568l-0.12288 0.67072c-1.00864 5.46304-1.8944 10.95168-2.75968 16.4352l-0.66048 4.1984c-0.49152 3.05152-0.99328 6.09792-1.39776 9.1648-0.29696 2.24768-0.58368 4.49536-0.99328 6.72256-0.31744 1.69472-0.57856 3.3792-0.75776 5.08928-0.15872 1.52064-0.3328 3.03616-0.53248 4.55168l-0.1024 0.7168-0.60928 4.34176c-1.5872 11.07968-2.88256 22.19008-3.97824 33.32608l-0.47104 4.70016c-1.14688 11.3152-2.20672 22.63552-2.8672 33.99168l-0.05632 1.08032-0.05632 0.99328a41.07776 41.07776 0 0 1-0.16384 2.24768c-0.18944 1.59744-0.31232 3.18976-0.41472 4.79232l-0.06656 1.09056c-0.29184 4.6848-0.49664 9.3696-0.6912 14.05952l-0.18432 4.40832-0.07168 1.7664c-0.05632 1.44384-0.1024 2.88256-0.2304 4.31616-0.21504 2.1248-0.2816 4.2496-0.32768 6.38464-0.00512 0.45568-0.01536 0.90624-0.03072 1.36192l-0.08704 3.63008-0.13824 5.85216-0.04608 2.06336c-0.04096 1.80736-0.0768 3.6096-0.1536 5.41184-0.19968 4.4544-0.2816 8.89344-0.2816 13.35296v21.34016c0 4.28032 0.03072 8.54528 0.21504 12.82048 0.07168 1.67936 0.12288 3.36384 0.14848 5.05344l0.01024 0.71168c0 0.31744 0.01024 0.6144 0.01536 0.92672 0.16384 13.824 0.86016 27.63264 1.6384 41.4464l0.13312 2.40128 0.21504 3.82976 0.08704 1.44384a158.208 158.208 0 0 0 0.59904 7.92576c0.16896 1.63328 0.32256 3.27168 0.41984 4.9152a236.416 236.416 0 0 0 0.60416 7.9616l0.256 2.9696 0.256 3.04128a632.32 632.32 0 0 0 1.57696 16.75264c0.13824 1.23904 0.26624 2.4832 0.38912 3.72736l0.06144 0.64512 0.12288 1.23904c1.3056 13.49632 2.96448 26.96704 4.98176 40.3712l0.63488 4.224c2.00192 13.48096 4.00896 26.96192 6.61504 40.3456a114.85184 114.85184 0 0 0 9.0368-2.54976c2.06848-0.70144 4.14208-1.38752 6.21568-2.05824a1121.3824 1121.3824 0 0 0 25.12384-8.448l2.83136-0.98816a1042.05824 1042.05824 0 0 0 26.25536-9.49248l2.37568-0.896c15.04256-5.65248 30.05952-11.49952 44.77952-17.96096 1.50016-0.65536 3.01056-1.3056 4.51584-1.95584 0.28672-0.11264 0.55808-0.23552 0.83968-0.35328 0.29184-0.11776 0.56832-0.24576 0.84992-0.36352a926.11584 926.11584 0 0 0 27.95008-12.43648l4.25472-1.97632c4.1472-1.90976 8.25856-3.8656 12.3648-5.86752 0.96256-0.46592 1.93024-0.94208 2.89792-1.39776 3.7888-1.80736 7.56224-3.64032 11.3152-5.51936l0.85504-0.43008c7.76704-3.88608 15.50848-7.8336 23.2192-11.84256 1.18272-0.6144 2.37056-1.23392 3.5584-1.8432a1151.96928 1151.96928 0 0 0 16.3072-8.57088 1049.09824 1049.09824 0 0 0 33.152-18.46784l2.68288-1.57184c4.45952-2.59584 8.89344-5.22752 13.29664-7.92576l1.40288-0.85504a596.5312 596.5312 0 0 0 11.46368-7.15264c1.02912-0.6656 2.05312-1.3312 3.09248-1.98144a330.83392 330.83392 0 0 0 9.84576-6.4256l1.52064-1.02912c3.77856-2.54976 7.56736-5.09952 11.28448-7.73632l1.09056-0.768 0.59904-0.41984 1.74592-1.23904a358.83008 358.83008 0 0 0 8.68352-6.26688l0.61952-0.46592c2.29888-1.70496 4.58752-3.4304 6.84544-5.1968 1.23392-0.96256 2.46784-1.93024 3.72224-2.88256 1.75104-1.3312 3.49696-2.65728 5.18144-4.06528l1.54624-1.3056c7.00416-5.4528 13.58848-12.5952 17.85856-20.41856 0.17408-0.32768 0.34816-0.66048 0.53248-0.98816a50.62144 50.62144 0 0 0 4.16256-10.17856l0.2304-0.7936c0.53248-1.81248 0.93696-3.59936 1.1008-5.48864 0.71168-14.47936-4.19328-26.99776-13.77792-37.83168a20.64384 20.64384 0 0 1-0.78848-0.84992z m-6.76864 40.32512a44.26752 44.26752 0 0 0-0.5632 1.35168c-2.18624 5.58592-5.74976 10.34752-10.0864 14.46912l-0.41984 0.38912a91.0848 91.0848 0 0 1-5.49376 4.83328l-1.29024 1.03424c-2.04288 1.65376-4.10624 3.28704-6.1952 4.87936l-1.64352 1.25952a561.42336 561.42336 0 0 1-17.08032 12.58496l-0.57344 0.41472c-5.80608 4.0448-5.80608 4.0448-11.66848 8.00768l-0.76288 0.512a462.09024 462.09024 0 0 1-13.58848 8.89344l-3.21024 2.02752-1.3312 0.82944c-4.22912 2.66752-8.48896 5.27872-12.78464 7.84384-0.98816 0.5888-1.98144 1.18272-2.96448 1.78176a387.8912 387.8912 0 0 1-9.09824 5.35552c-1.88928 1.0496-3.75808 2.11968-5.62176 3.21536-2.36544 1.38752-4.736 2.74944-7.14752 4.04992-1.76128 0.95744-3.51744 1.92-5.248 2.90304a306.8416 306.8416 0 0 1-8.73472 4.79744l-1.05472 0.55296c-0.17408 0.1024-0.34816 0.18944-0.52224 0.2816-1.46432 0.768-2.91328 1.5616-4.36736 2.3552-2.65728 1.4592-5.32992 2.87744-8.01792 4.27008-1.28512 0.6656-2.57024 1.32608-3.84512 2.00704-2.4576 1.31072-4.9408 2.57536-7.44448 3.8144a217.344 217.344 0 0 0-5.44256 2.77504c-9.41056 4.85888-9.41056 4.85888-18.93376 9.50272-0.31744 0.14848-0.6144 0.30208-0.91648 0.44544-3.65056 1.79712-7.30624 3.57376-10.97728 5.3248-1.05472 0.50688-2.10944 1.00352-3.15904 1.51552a777.2672 777.2672 0 0 1-15.79008 7.41888c-0.63488 0.29184-1.27488 0.57856-1.90976 0.87552a1090.67776 1090.67776 0 0 1-29.22496 12.9024l-0.64 0.27136a1239.22944 1239.22944 0 0 1-49.02912 19.52256l-0.64 0.24064c-2.33472 0.8704-4.66944 1.72544-7.0144 2.57536l-1.94048 0.70656a1115.45344 1115.45344 0 0 1-21.94944 7.74144l-1.70496 0.57856-2.72384 0.92672-1.01376 0.33792c-1.96608 0.67072-3.8912 1.27488-5.92384 1.67936a66.16576 66.16576 0 0 0-0.4352-2.80064c-1.05472-6.20544-1.05472-6.20544-1.94048-12.4416l-0.09728-0.67584a892.27264 892.27264 0 0 1-3.88608-29.96224 585.8816 585.8816 0 0 0-0.82432-7.3472 716.5952 716.5952 0 0 1-2.66752-26.69056l-0.14336-1.81248-0.09216-1.15712a152.9856 152.9856 0 0 0-0.66048-6.84032 46.74048 46.74048 0 0 1-0.35328-4.14208c-0.04608-1.56672-0.1024-3.11808-0.26624-4.67456a237.7984 237.7984 0 0 1-0.90112-11.776 1681.62304 1681.62304 0 0 1-1.1008-20.70528 956.3648 956.3648 0 0 1-0.67072-17.36192c-0.4608-12.4416-0.5632-24.87296-0.5632-37.31456v-1.83296-7.09632-1.66912c0-4.48 0.06144-8.93952 0.25088-13.40928a322.51904 322.51904 0 0 0 0.22016-7.31136l0.11776-4.79232c0.22016-8.88832 0.59392-17.75616 1.09568-26.63424l0.23552-4.20352 0.18432-3.328 0.09216-1.5872 0.12288-2.24256 0.03584-0.6912c0.07168-1.2544 0.1536-2.49344 0.29696-3.7376 0.11264-0.96256 0.17408-1.91488 0.21504-2.87744a205.4144 205.4144 0 0 1 0.4864-8.1408l0.0512-0.6656c0.4352-5.69344 0.9728-11.37664 1.536-17.05984l0.32256-3.27168c0.93696-9.62048 1.83808-19.24608 3.01568-28.84096l0.24064-1.98656a1284.46976 1284.46976 0 0 1 4.25472-31.55968c0.38912-2.78016 0.7936-5.56032 1.27488-8.33024l0.1792-1.00352 0.63488-3.61984c0.80384-0.03584 0.80384-0.03584 1.44896 0.17408l0.74752 0.24576 0.85504 0.28672 0.93696 0.31232c1.03424 0.33792 2.05824 0.68096 3.09248 1.02912l1.664 0.55808c43.92448 15.37536 69.4528 25.34912 94.63296 36.20352l3.52256 1.51552c4.7616 2.03264 9.48224 4.15232 14.18752 6.31296 1.37728 0.63488 2.75968 1.26976 4.14208 1.8944a979.65056 979.65056 0 0 1 16.66048 7.72608c3.31264 1.56672 6.6048 3.15904 9.8816 4.80256 1.90464 0.96256 3.81952 1.90464 5.74464 2.82624 2.98496 1.42336 5.9648 2.87232 8.91904 4.352l2.39616 1.19808c2.7648 1.37728 5.51936 2.76992 8.24832 4.20864 1.57696 0.83456 3.15392 1.65888 4.74112 2.44736a227.84 227.84 0 0 1 6.30784 3.21536c1.59744 0.8448 3.19488 1.66912 4.8128 2.46784 2.2784 1.1264 4.53632 2.28352 6.76352 3.51232 1.93536 1.07008 3.88096 2.10944 5.84192 3.11808 2.65728 1.36192 5.28896 2.74944 7.87968 4.22912 1.82272 1.03936 3.65056 2.06336 5.49376 3.06176 3.51744 1.88928 6.9888 3.84512 10.44992 5.8368l2.33984 1.34656a772.864 772.864 0 0 1 27.65312 16.5376l0.79872 0.50688c7.51616 4.75136 15.00672 9.57952 22.27712 14.70464l1.96096 1.38752a618.98752 618.98752 0 0 1 9.58976 6.8608c2.30912 1.64864 4.59264 3.31264 6.83008 5.06368 1.36192 1.07008 2.72384 2.12992 4.11648 3.16416 2.07872 1.536 4.10112 3.13344 6.0928 4.78208l1.00352 0.82432c6.59456 5.10464 12.84608 11.74528 16.32256 19.42016 2.02752 4.67456 2.92864 10.52672 1.0752 15.40608z" fill="#1898F8" /><path d="M549.57056 503.79776c-3.49184-3.33824-7.33184-6.20544-11.28448-8.96512-0.17408-0.12288-0.34304-0.24576-0.52224-0.36352a316.84608 316.84608 0 0 0-18.86208-12.08832l-0.896-0.5376a345.53856 345.53856 0 0 0-10.68544-6.15424 297.48736 297.48736 0 0 1-4.31104-2.41152 400.50688 400.50688 0 0 0-11.93472-6.49216l-2.92352-1.54112c-31.46752-15.83616-53.72928-27.24864-76.99456-33.49504l-0.97792-0.25088c-3.94752-1.02912-7.3472-1.25952-10.73664 1.21856-4.54144 4.41856-4.54144 4.41856-5.3248 24.60672l-0.07168 1.83808c-0.10752 2.68288-0.20992 5.37088-0.30208 8.064l-0.11264 3.2256c-0.83968 35.61984-0.96256 58.58304-0.04096 81.41312l0.1536 3.9168c0.34304 9.216-1.54112 25.86112 5.52448 32.92672l0.72192 0.44544c0.89088 0.61952 0.89088 0.61952 1.45408 0.896 5.30432 1.47968 11.66336-0.92672 16.5632-2.80064 0.768-0.30208 1.53088-0.5888 2.304-0.8704a342.17984 342.17984 0 0 0 24.40192-10.20416c1.28-0.59392 2.56512-1.17248 3.85536-1.75616a494.86336 494.86336 0 0 0 15.46752-7.296c1.5104-0.7424 3.0208-1.47968 4.54144-2.21184 3.32288-1.60256 6.66112-3.18464 9.92256-4.92032 1.61792-0.86528 3.24608-1.70496 4.8896-2.52416 2.24256-1.11616 4.49024-2.23744 6.7072-3.40992 1.46944-0.77312 2.93888-1.55648 4.41856-2.31424a431.40608 431.40608 0 0 0 10.19904-5.41184c0.75264-0.4096 1.5104-0.82432 2.26816-1.2288 9.40032-5.0432 18.7136-10.34752 27.65312-16.16384l0.66048-0.4352a137.32352 137.32352 0 0 0 10.9824-7.79264c2.94912-2.53952 6.74816-6.22592 7.07072-10.3168-0.16896-2.34496-1.4848-4.53632-3.20512-6.08768l-0.57344-0.50688z" fill="#1898F8" /><path d="M849.92 51.2h-675.84c-67.8656 0-122.88 55.0144-122.88 122.88v675.84c0 67.8656 55.0144 122.88 122.88 122.88h675.84c67.8656 0 122.88-55.0144 122.88-122.88v-675.84c0-67.8656-55.0144-122.88-122.88-122.88z m-32.06656 470.61504l-0.15872 0.65024c-2.82112 12.09856-8.92416 23.4752-16.64 33.152-0.45568 0.5632-0.896 1.12128-1.34144 1.6896-1.30048 1.6896-2.60608 3.34336-4.0448 4.9152-0.56832 0.6144-1.14688 1.22368-1.69472 1.86368-1.09568 1.28-2.24256 2.4832-3.4304 3.68128l-0.71168 0.71168-1.93024 1.93024-1.99168 1.99168a309.20704 309.20704 0 0 1-9.21088 8.92928l-0.45056 0.41472-1.7152 1.57696-2.00704 1.83296c-1.32096 1.21344-2.64192 2.44224-3.9936 3.62496a74.24 74.24 0 0 0-1.664 1.46944 195.6352 195.6352 0 0 1-7.80288 6.7584c-0.91648 0.7424-1.8176 1.48992-2.7136 2.2528a319.0016 319.0016 0 0 1-11.80672 9.58976 506.60864 506.60864 0 0 1-6.9632 5.40672 512.36352 512.36352 0 0 1-19.60448 14.32064 727.57248 727.57248 0 0 1-35.06688 23.28576l-1.31072 0.82432-2.59584 1.64352c-4.95616 3.13856-9.94816 6.22592-14.97088 9.27232l-2.56 1.5616c-3.92704 2.39104-7.85408 4.7616-11.80672 7.10656-2.1504 1.26976-4.29568 2.54464-6.4256 3.82976-3.5328 2.1248-7.08608 4.21376-10.64448 6.29248l-4.608 2.69824-1.01888 0.59392c-2.06848 1.20832-4.13184 2.432-6.1952 3.65056-2.99008 1.77152-5.99552 3.51232-9.00608 5.248l-3.66592 2.10944-3.6096 2.07872c-0.81408 0.47104-1.62816 0.9472-2.45248 1.41312-2.82112 1.62816-5.6576 3.21536-8.54016 4.7616-1.97632 1.05472-3.94752 2.1248-5.89824 3.24096a324.864 324.864 0 0 1-8.99584 4.92032c-2.02752 1.07008-4.06016 2.1504-6.07232 3.25632-3.55328 1.96608-7.16288 3.8144-10.77248 5.66272-1.52064 0.768-3.03616 1.54624-4.54656 2.3296a744.30464 744.30464 0 0 1-17.97632 8.9856l-3.93728 1.90976a976.7424 976.7424 0 0 1-22.3232 10.5728l-2.36032 1.08544a1191.46496 1191.46496 0 0 1-32.82944 14.4896c-0.7168 0.31232-1.43872 0.6144-2.15552 0.9216a1058.89792 1058.89792 0 0 1-54.72768 21.43744l-2.0736 0.74752c-4.5568 1.67424-9.088 3.10784-13.87008 4.00384l-0.85504 0.1536c-6.73792 1.28512-14.24384 1.3824-21.06368 0.62976l-0.61952-0.08192a72.48384 72.48384 0 0 1-34.61632-13.88032l-0.512-0.38912a76.42112 76.42112 0 0 1-14.41792-14.30016l-0.40448-0.52224c-6.0672-7.82848-10.85952-17.54624-12.76416-27.29472l-0.13312-0.70144c-0.43008-2.26304-0.85504-4.53632-1.26464-6.80448l-0.10752-0.60416c-1.34144 0.3584-2.67264 0.71168-3.98848 1.14688-5.504 1.95072-11.21792 3.15904-16.96256 4.16768l-1.00352 0.17408c-4.18304 0.75264-8.30976 0.896-12.54912 0.90624l-0.86016 0.00512c-4.58752 0.01536-9.21088-0.04096-13.71136-1.03936l-0.59392-0.14336c-14.0288-3.46112-25.57952-11.66336-33.6896-23.64416l-0.34304-0.512c-7.1424-10.48064-11.2896-22.38976-14.98624-34.42688l-0.384-1.24928a216.58624 216.58624 0 0 1-3.99872-15.11424l-0.11776-0.52736a344.80128 344.80128 0 0 1-3.072-15.17568 192.88064 192.88064 0 0 1-1.9712-12.22656 197.39136 197.39136 0 0 0-0.37888-2.97984l-0.50176-3.85024-0.11264-0.896a418.97984 418.97984 0 0 1-3.05664-34.40128c-0.97792-18.39616-1.10592-36.82816-1.11104-55.2448v-3.46112l-0.00512-11.70944v-0.62464-0.62976l-0.00512-9.3952c-0.01536-15.70304-0.06144-31.4112 0.28672-47.11424l0.01536-0.78336c0.36864-16.77312 1.15712-33.60256 3.38944-50.24256 0.17408-1.28 0.33792-2.56512 0.49664-3.84512 0.77824-6.24128 1.61792-12.45184 2.80576-18.63168l0.2048-1.03424a274.46272 274.46272 0 0 1 3.15392-14.2848 161.9968 161.9968 0 0 1 2.59072-9.66656c0.31744-1.01376 0.61952-2.02752 0.89088-3.05664 3.26656-12.5696 8.28416-25.64608 16.23552-35.99872 0.3584-0.4608 0.7168-0.92672 1.06496-1.39776 2.9952-4.11136 6.69696-7.77728 10.6496-10.97216l0.81408-0.64c7.61344-6.0672 16.88064-10.37824 26.51648-11.96544l0.65536-0.10752c13.056-2.31424 27.4432-0.8192 39.93088 3.51744 1.34656 0.47104 2.55488 0.78848 3.97824 0.8704l0.10752-0.66048 0.16384-0.98304c2.1248-12.70272 7.04-24.74496 15.20128-34.79552l0.7168-0.88064c2.01216-2.55488 4.15744-4.89472 6.6048-7.03488 0.57856-0.49152 1.14688-0.98304 1.70496-1.49504 1.664-1.53088 3.38944-2.944 5.20704-4.29056l0.4864-0.35328c9.22624-6.81472 20.096-11.22304 31.40608-12.99968l1.24928-0.1792a51.95776 51.95776 0 0 1 8.82176-0.62464h2.5344c9.02144-0.03584 17.30048 1.75616 25.76384 4.82304l1.54112 0.55808a967.30112 967.30112 0 0 1 5.79584 2.0992c3.95776 1.44384 7.9104 2.89792 11.84768 4.3776l0.77312 0.29184c7.37792 2.7648 14.70976 5.64224 22.02624 8.56576l2.00704 0.79872a987.60192 987.60192 0 0 1 29.46048 12.26752c5.49376 2.35008 10.94144 4.79232 16.384 7.26016l4.74624 2.1504c3.66592 1.65376 7.33184 3.32288 10.9568 5.08416 1.72544 0.83968 3.456 1.67936 5.20192 2.47296 8.64256 4.06528 8.64256 4.06528 17.18272 8.35072l3.40992 1.70496 3.36896 1.69472 1.62304 0.80896c3.09248 1.54624 6.17984 3.10784 9.2416 4.73088 1.54112 0.81408 3.08736 1.6128 4.62848 2.41152 3.64544 1.87392 7.26528 3.78368 10.86976 5.72928l2.78016 1.49504c4.25472 2.2784 8.48896 4.58752 12.71296 6.93248l2.42688 1.34656a793.856 793.856 0 0 1 17.47456 9.92256c1.98144 1.15712 3.95776 2.30912 5.94944 3.456 4.608 2.65216 9.18016 5.3504 13.74208 8.0896 2.26816 1.36704 4.54656 2.71872 6.81984 4.0704a1196.91264 1196.91264 0 0 1 32.18432 19.77344c2.70848 1.7152 5.43744 3.42016 8.09984 5.21216 0.86528 0.5888 1.7408 1.17248 2.62656 1.73568 8.03328 5.1712 8.03328 5.1712 15.93856 10.53696l1.88928 1.28c2.49344 1.69472 5.00224 3.3792 7.4496 5.1456 1.2288 0.89088 2.47808 1.76128 3.7376 2.61632 2.3808 1.6128 4.73088 3.27168 7.06048 4.9664a749.1072 749.1072 0 0 1 20.46976 15.16544l1.55136 1.19296c2.00192 1.52576 3.97824 3.072 5.95968 4.62848l1.43872 1.13152c2.44224 1.90976 4.85376 3.84512 7.26016 5.8112l0.49664 0.4096 1.60256 1.30048c0.47104 0.39424 0.95232 0.77824 1.42336 1.16736 1.65888 1.35168 3.31264 2.7136 4.93568 4.11648 0.90624 0.77312 1.80736 1.54624 2.72384 2.29888 1.3312 1.07008 2.61632 2.16576 3.8656 3.32288 1.02912 0.95744 2.0736 1.87904 3.1744 2.75968 1.0496 0.8448 2.05312 1.72032 3.05664 2.62656 0.66048 0.60928 1.31072 1.21344 1.98656 1.80224 1.26976 1.09568 2.49856 2.23232 3.72224 3.3792 0.896 0.83968 1.78688 1.67936 2.70848 2.48832 1.06496 0.91136 2.06848 1.86368 3.05664 2.86208 0.88576 0.896 1.77664 1.75616 2.72896 2.57024 0.57344 0.47616 1.02912 0.92672 1.50016 1.5104 0.56832 0.7168 0.56832 0.7168 1.22368 1.37728 1.88928 1.8176 3.6096 3.7376 5.28384 5.74976l0.37376 0.45568c7.30112 8.66816 13.37856 18.58048 16.26112 29.63456l0.20992 0.82432c2.12992 8.19712 2.44224 17.99168 0.4352 26.25536z" fill="#1898F8" /></svg>